<svg width="100" height="100" viewBox="0 0 100 100" fill="none" xmlns="http://www.w3.org/2000/svg">
<rect width="100" height="100" fill="#1E4DD8"/>
<path d="M82.5514 49.8034C82.5514 37.3897 71.9123 24.6667 49.9423 24.6667C28.4786 24.6667 17.3333 38.4681 17.3333 51.3766C17.3333 60.4431 25.035 67.8609 34.2109 67.861C39.4011 67.861 43.9022 67.8133 48.0465 65.0504C48.6602 64.6414 49.4492 64.6032 50.0995 64.9512C50.7498 65.2992 51.1558 65.977 51.1558 66.7145V70.2542C51.1559 71.8343 51.6299 73.1206 52.3541 73.9766C53.0502 74.7992 54.0619 75.3333 55.4485 75.3333C56.5899 75.3333 57.6424 74.3773 58.8459 72.3714C59.4626 71.3436 60.3605 69.9771 61.5432 68.8535C62.7265 67.7294 64.3752 66.681 66.4602 66.681H67.2017C75.8517 66.3162 82.5513 59.0382 82.5514 49.8034ZM86.5514 49.8034C86.5513 61.007 78.3242 70.2394 67.3267 70.6793C67.3002 70.6804 67.2736 70.681 67.247 70.681H66.4602C65.7923 70.681 65.0815 71.0094 64.2984 71.7532C63.5148 72.4977 62.8391 73.4908 62.276 74.4293C61.1198 76.3562 59.0264 79.3333 55.4485 79.3333C52.9022 79.3333 50.7674 78.2942 49.3004 76.5605C47.8616 74.8601 47.1559 72.6069 47.1558 70.2542V70.0495C42.7839 71.8911 38.2732 71.861 34.2109 71.861C22.936 71.8609 13.3333 62.7608 13.3333 51.3766C13.3333 35.9686 26.5715 20.6667 49.9423 20.6667C73.5934 20.6667 86.5514 34.6871 86.5514 49.8034Z" fill="#F2F3F9"/>
<path d="M48.3108 38.1414C49.1042 37.6747 50.1257 37.9395 50.5924 38.7329C51.059 39.5262 50.7942 40.5477 50.0009 41.0145L36.6291 48.8803C35.8358 49.347 34.8143 49.0819 34.3476 48.2885C33.8809 47.4952 34.1457 46.4736 34.939 46.007L48.3108 38.1414Z" fill="#F2F3F9"/>
<path d="M47.6809 38.8016C48.1096 37.9871 49.1176 37.6743 49.9322 38.103L64.8768 45.9689C65.6914 46.3976 66.0041 47.4053 65.5754 48.2199C65.1467 49.0344 64.1389 49.3471 63.3244 48.9184L48.3794 41.0529C47.5649 40.6241 47.2522 39.6161 47.6809 38.8016Z" fill="#F2F3F9"/>
<path d="M47.4891 56.0958V39.5779C47.4891 38.6575 48.2353 37.9113 49.1558 37.9113C50.0763 37.9113 50.8225 38.6575 50.8225 39.5779V56.0958C50.8225 57.0163 50.0763 57.7625 49.1558 57.7625C48.2353 57.7625 47.4891 57.0163 47.4891 56.0958Z" fill="#F2F3F9"/>
<path d="M35.7841 51.3765C37.9561 51.3765 39.7169 49.6157 39.7169 47.4436C39.7169 45.2716 37.9561 43.5108 35.7841 43.5108C33.612 43.5108 31.8512 45.2716 31.8512 47.4436C31.8512 49.6157 33.612 51.3765 35.7841 51.3765Z" fill="#F2F3F9"/>
<path d="M39.3835 47.4437C39.3835 45.4558 37.7721 43.8442 35.7842 43.8441C33.7962 43.8441 32.1846 45.4558 32.1846 47.4437C32.1846 49.4316 33.7962 51.043 35.7842 51.043L35.7841 51.3765L35.6826 51.3754C33.5912 51.3224 31.9056 49.6366 31.8525 47.5453L31.8512 47.4436C31.8512 45.2716 33.612 43.5108 35.7841 43.5108L35.8857 43.5121C38.0108 43.566 39.7169 45.3056 39.7169 47.4436L39.7158 47.5453C39.6619 49.6703 37.9221 51.3764 35.7841 51.3765L35.7842 51.043C37.7721 51.043 39.3834 49.4316 39.3835 47.4437Z" fill="#F2F3F9"/>
<path d="M49.1558 43.5108C51.3278 43.5108 53.0886 41.75 53.0886 39.5779C53.0886 37.4059 51.3278 35.6451 49.1558 35.6451C46.9837 35.6451 45.2229 37.4059 45.2229 39.5779C45.2229 41.75 46.9837 43.5108 49.1558 43.5108Z" fill="#F2F3F9"/>
<path d="M52.7552 39.578C52.7552 37.5901 51.1438 35.9785 49.1559 35.9784C47.1679 35.9784 45.5563 37.5901 45.5563 39.578C45.5563 41.5659 47.168 43.1773 49.1559 43.1773L49.1558 43.5108L49.0543 43.5097C46.9629 43.4567 45.2773 41.7709 45.2242 39.6796L45.2229 39.5779C45.2229 37.4059 46.9837 35.6451 49.1558 35.6451L49.2574 35.6464C51.3825 35.7003 53.0886 37.4399 53.0886 39.5779L53.0875 39.6796C53.0336 41.8046 51.2938 43.5107 49.1558 43.5108L49.1559 43.1773C51.1438 43.1773 52.7551 41.5659 52.7552 39.578Z" fill="#F2F3F9"/>
<path d="M64.1006 51.3765C66.2727 51.3765 68.0335 49.6157 68.0335 47.4436C68.0335 45.2716 66.2727 43.5108 64.1006 43.5108C61.9286 43.5108 60.1678 45.2716 60.1678 47.4436C60.1678 49.6157 61.9286 51.3765 64.1006 51.3765Z" fill="#F2F3F9"/>
<path d="M67.7 47.4437C67.7 45.4558 66.0886 43.8442 64.1007 43.8441C62.1128 43.8441 60.5011 45.4558 60.5011 47.4437C60.5012 49.4316 62.1128 51.043 64.1007 51.043L64.1006 51.3765L63.9992 51.3754C61.9078 51.3224 60.2221 49.6366 60.1691 47.5453L60.1678 47.4436C60.1678 45.2716 61.9286 43.5108 64.1006 43.5108L64.2023 43.5121C66.3274 43.566 68.0335 45.3056 68.0335 47.4436L68.0324 47.5453C67.9785 49.6703 66.2387 51.3764 64.1006 51.3765L64.1007 51.043C66.0886 51.043 67.7 49.4316 67.7 47.4437Z" fill="#F2F3F9"/>
<path d="M49.1558 60.0288C51.3278 60.0288 53.0886 58.268 53.0886 56.0959C53.0886 53.9239 51.3278 52.1631 49.1558 52.1631C46.9837 52.1631 45.2229 53.9239 45.2229 56.0959C45.2229 58.268 46.9837 60.0288 49.1558 60.0288Z" fill="#F2F3F9"/>
<path d="M52.7552 56.096C52.7552 54.1081 51.1438 52.4964 49.1559 52.4964C47.1679 52.4964 45.5563 54.108 45.5563 56.096C45.5563 58.0839 47.168 59.6953 49.1559 59.6953L49.1558 60.0288L49.0543 60.0276C46.9629 59.9747 45.2773 58.2889 45.2242 56.1976L45.2229 56.0959C45.2229 53.9239 46.9837 52.1631 49.1558 52.1631L49.2574 52.1644C51.3825 52.2183 53.0886 53.9578 53.0886 56.0959L53.0875 56.1976C53.0336 58.3226 51.2938 60.0287 49.1558 60.0288L49.1559 59.6953C51.1438 59.6952 52.7551 58.0839 52.7552 56.096Z" fill="#F2F3F9"/>
</svg>
