<svg width="17" height="17" viewBox="0 0 17 17" fill="none" xmlns="http://www.w3.org/2000/svg">
<path d="M7.9992 16.2096C7.81086 16.016 7.71224 15.7695 7.70334 15.4703C7.69512 15.1711 7.78518 14.9246 7.97351 14.731L13.0072 9.55611H1.52729C1.23622 9.55611 0.992071 9.45472 0.794832 9.25195C0.598277 9.04988 0.5 8.79923 0.5 8.5C0.5 8.20077 0.598277 7.94977 0.794832 7.747C0.992071 7.54493 1.23622 7.44389 1.52729 7.44389H13.0072L7.97351 2.26898C7.78518 2.07536 7.69512 1.82893 7.70334 1.5297C7.71224 1.23047 7.81086 0.984048 7.9992 0.790429C8.18753 0.596809 8.42723 0.5 8.7183 0.5C9.00936 0.5 9.24906 0.596809 9.4374 0.790429L16.2175 7.76073C16.3202 7.84873 16.3932 7.95857 16.4363 8.09023C16.4788 8.2226 16.5 8.35919 16.5 8.5C16.5 8.64081 16.4788 8.77283 16.4363 8.89604C16.3932 9.01925 16.3202 9.13366 16.2175 9.23927L9.4374 16.2096C9.24906 16.4032 9.00936 16.5 8.7183 16.5C8.42723 16.5 8.18753 16.4032 7.9992 16.2096Z" fill="currentColor"/>
</svg>
