<svg width="45" height="45" viewBox="0 0 45 45" fill="none" xmlns="http://www.w3.org/2000/svg">
<path d="M33.7776 37C32.7303 37 31.7905 36.6982 30.9581 36.0946C30.1257 35.4899 29.5484 34.7176 29.2262 33.7778H20.8887C19.1165 33.7778 17.5993 33.1468 16.3373 31.8847C15.0752 30.6227 14.4442 29.1056 14.4442 27.3333C14.4442 25.5611 15.0752 24.044 16.3373 22.7819C17.5993 21.5199 19.1165 20.8889 20.8887 20.8889H24.1109C24.997 20.8889 25.7558 20.5731 26.3874 19.9416C27.0179 19.3111 27.3331 18.5528 27.3331 17.6667C27.3331 16.7806 27.0179 16.0217 26.3874 15.3902C25.7558 14.7597 24.997 14.4444 24.1109 14.4444H15.7734C15.4243 15.3843 14.8406 16.1565 14.0221 16.7612C13.2026 17.3649 12.2692 17.6667 11.222 17.6667C9.87941 17.6667 8.73821 17.1968 7.79839 16.2569C6.85858 15.3171 6.38867 14.1759 6.38867 12.8333C6.38867 11.4907 6.85858 10.3495 7.79839 9.40972C8.73821 8.46991 9.87941 8 11.222 8C12.2692 8 13.2026 8.30181 14.0221 8.90544C14.8406 9.51015 15.4243 10.2824 15.7734 11.2222H24.1109C25.8831 11.2222 27.4002 11.8532 28.6623 13.1153C29.9243 14.3773 30.5553 15.8944 30.5553 17.6667C30.5553 19.4389 29.9243 20.956 28.6623 22.2181C27.4002 23.4801 25.8831 24.1111 24.1109 24.1111H20.8887C20.0026 24.1111 19.2443 24.4264 18.6138 25.0568C17.9822 25.6884 17.6665 26.4472 17.6665 27.3333C17.6665 28.2194 17.9822 28.9783 18.6138 29.6098C19.2443 30.2403 20.0026 30.5556 20.8887 30.5556H29.2262C29.5752 29.6157 30.1595 28.8435 30.9791 28.2388C31.7975 27.6351 32.7303 27.3333 33.7776 27.3333C35.1202 27.3333 36.2614 27.8032 37.2012 28.7431C38.141 29.6829 38.6109 30.8241 38.6109 32.1667C38.6109 33.5093 38.141 34.6505 37.2012 35.5903C36.2614 36.5301 35.1202 37 33.7776 37ZM11.222 14.4444C11.6785 14.4444 12.0614 14.2903 12.3707 13.9821C12.679 13.6727 12.8331 13.2898 12.8331 12.8333C12.8331 12.3769 12.679 11.9939 12.3707 11.6846C12.0614 11.3764 11.6785 11.2222 11.222 11.2222C10.7655 11.2222 10.3826 11.3764 10.0733 11.6846C9.76502 11.9939 9.61089 12.3769 9.61089 12.8333C9.61089 13.2898 9.76502 13.6727 10.0733 13.9821C10.3826 14.2903 10.7655 14.4444 11.222 14.4444Z" fill="#F2F3F9"/>
</svg>
