<svg width="42" height="45" viewBox="0 0 42 45" fill="none" xmlns="http://www.w3.org/2000/svg">
<path d="M14.0402 36.7889C12.07 35.6068 10.4798 33.9952 9.2695 31.954C8.05924 29.914 7.4541 27.6556 7.4541 25.1788C7.4541 21.9983 8.39698 18.9445 10.2828 16.0173C12.1685 13.0902 14.7579 10.5289 18.051 8.33354C18.6702 7.91135 19.3108 7.88996 19.9728 8.26937C20.6336 8.6499 20.9641 9.22013 20.9641 9.98007V12.1754C20.9641 13.1324 21.2951 13.9345 21.9571 14.5819C22.6179 15.2293 23.4268 15.5529 24.3838 15.5529C24.8623 15.5529 25.3199 15.4477 25.7567 15.2371C26.1924 15.0255 26.5791 14.7226 26.9169 14.3286C27.1421 14.0471 27.4308 13.8709 27.7832 13.8C28.1345 13.7302 28.4649 13.8079 28.7745 14.0331C30.5477 15.2996 31.9409 16.918 32.9542 18.8882C33.9674 20.8584 34.474 22.9553 34.474 25.1788C34.474 27.6556 33.8689 29.914 32.6586 31.954C31.4484 33.9952 29.8581 35.6068 27.8879 36.7889C28.3664 36.1134 28.7396 35.3743 29.0076 34.5716C29.2744 33.77 29.4078 32.9189 29.4078 32.0182C29.4078 30.8924 29.1967 29.8302 28.7745 28.8315C28.3523 27.8318 27.7472 26.9379 26.9591 26.1498L20.9641 20.2814L15.0112 26.1498C14.195 26.966 13.5758 27.8667 13.1536 28.8518C12.7314 29.8369 12.5203 30.8924 12.5203 32.0182C12.5203 32.9189 12.6543 33.77 12.9223 34.5716C13.1891 35.3743 13.5617 36.1134 14.0402 36.7889ZM20.9641 37C19.5568 37 18.3606 36.5142 17.3755 35.5426C16.3904 34.5721 15.8978 33.3973 15.8978 32.0182C15.8978 31.3708 16.0245 30.7449 16.2778 30.1403C16.5311 29.5346 16.897 28.9925 17.3755 28.5141L20.9641 25.0099L24.5527 28.5141C25.0311 28.9925 25.397 29.5273 25.6503 30.1184C25.9036 30.7094 26.0303 31.3427 26.0303 32.0182C26.0303 33.3973 25.5378 34.5721 24.5527 35.5426C23.5676 36.5142 22.3714 37 20.9641 37Z" fill="#F2F3F9"/>
</svg>
