<svg width="27" height="27" viewBox="0 0 27 27" fill="none" xmlns="http://www.w3.org/2000/svg">
<path d="M5.4 13.1625L2.5875 10.35C2.3625 10.125 2.25 9.8625 2.25 9.5625C2.25 9.2625 2.3625 9 2.5875 8.775L5.4 5.9625C5.625 5.7375 5.8875 5.625 6.1875 5.625C6.4875 5.625 6.75 5.7375 6.975 5.9625L9.7875 8.775C10.0125 9 10.125 9.2625 10.125 9.5625C10.125 9.8625 10.0125 10.125 9.7875 10.35L6.975 13.1625C6.75 13.3875 6.4875 13.5 6.1875 13.5C5.8875 13.5 5.625 13.3875 5.4 13.1625ZM11.25 24.75C10.9312 24.75 10.6641 24.6422 10.4484 24.4266C10.2328 24.2109 10.125 23.9437 10.125 23.625V19.125C9.1875 19.05 8.25938 18.9469 7.34062 18.8156C6.42188 18.6844 5.50312 18.5156 4.58437 18.3094C4.26562 18.2344 4.00781 18.0562 3.81094 17.775C3.61406 17.4937 3.5625 17.1938 3.65625 16.875C3.75 16.5562 3.94219 16.3219 4.23281 16.1719C4.52344 16.0219 4.82812 15.9844 5.14687 16.0594C6.51562 16.3781 7.89844 16.5938 9.29531 16.7062C10.6922 16.8187 12.0938 16.875 13.5 16.875C14.9062 16.875 16.3078 16.8187 17.7047 16.7062C19.1016 16.5938 20.4844 16.3781 21.8531 16.0594C22.1719 15.9844 22.4766 16.0219 22.7672 16.1719C23.0578 16.3219 23.25 16.5562 23.3438 16.875C23.4375 17.1938 23.3859 17.4937 23.1891 17.775C22.9922 18.0562 22.7344 18.2344 22.4156 18.3094C21.4969 18.5156 20.5781 18.6844 19.6594 18.8156C18.7406 18.9469 17.8125 19.05 16.875 19.125V23.625C16.875 23.9437 16.7672 24.2109 16.5516 24.4266C16.3359 24.6422 16.0687 24.75 15.75 24.75H11.25ZM13.5 7.875C12.5625 7.875 11.7656 7.54688 11.1094 6.89062C10.4531 6.23438 10.125 5.4375 10.125 4.5C10.125 3.5625 10.4531 2.76562 11.1094 2.10938C11.7656 1.45312 12.5625 1.125 13.5 1.125C14.4375 1.125 15.2344 1.45312 15.8906 2.10938C16.5469 2.76562 16.875 3.5625 16.875 4.5C16.875 5.4375 16.5469 6.23438 15.8906 6.89062C15.2344 7.54688 14.4375 7.875 13.5 7.875ZM13.5 15.75C12.8812 15.75 12.3516 15.5297 11.9109 15.0891C11.4703 14.6484 11.25 14.1187 11.25 13.5C11.25 12.8812 11.4703 12.3516 11.9109 11.9109C12.3516 11.4703 12.8812 11.25 13.5 11.25C14.1187 11.25 14.6484 11.4703 15.0891 11.9109C15.5297 12.3516 15.75 12.8812 15.75 13.5C15.75 14.1187 15.5297 14.6484 15.0891 15.0891C14.6484 15.5297 14.1187 15.75 13.5 15.75ZM18.8719 12.9375L17.5781 10.6875C17.4844 10.5188 17.4375 10.3313 17.4375 10.125C17.4375 9.91875 17.4844 9.73125 17.5781 9.5625L18.8719 7.3125C18.9656 7.125 19.0969 6.98438 19.2656 6.89062C19.4344 6.79688 19.6219 6.75 19.8281 6.75H22.3594C22.5656 6.75 22.7531 6.79688 22.9219 6.89062C23.0906 6.98438 23.2219 7.125 23.3156 7.3125L24.6094 9.5625C24.7031 9.73125 24.75 9.91875 24.75 10.125C24.75 10.3313 24.7031 10.5188 24.6094 10.6875L23.3156 12.9375C23.2219 13.125 23.0906 13.2656 22.9219 13.3594C22.7531 13.4531 22.5656 13.5 22.3594 13.5H19.8281C19.6219 13.5 19.4344 13.4531 19.2656 13.3594C19.0969 13.2656 18.9656 13.125 18.8719 12.9375Z" fill="#020712" fill-opacity="0.88"/>
<path d="M5.4 13.1625L2.5875 10.35C2.3625 10.125 2.25 9.8625 2.25 9.5625C2.25 9.2625 2.3625 9 2.5875 8.775L5.4 5.9625C5.625 5.7375 5.8875 5.625 6.1875 5.625C6.4875 5.625 6.75 5.7375 6.975 5.9625L9.7875 8.775C10.0125 9 10.125 9.2625 10.125 9.5625C10.125 9.8625 10.0125 10.125 9.7875 10.35L6.975 13.1625C6.75 13.3875 6.4875 13.5 6.1875 13.5C5.8875 13.5 5.625 13.3875 5.4 13.1625ZM11.25 24.75C10.9312 24.75 10.6641 24.6422 10.4484 24.4266C10.2328 24.2109 10.125 23.9437 10.125 23.625V19.125C9.1875 19.05 8.25938 18.9469 7.34062 18.8156C6.42188 18.6844 5.50312 18.5156 4.58437 18.3094C4.26562 18.2344 4.00781 18.0562 3.81094 17.775C3.61406 17.4937 3.5625 17.1938 3.65625 16.875C3.75 16.5562 3.94219 16.3219 4.23281 16.1719C4.52344 16.0219 4.82812 15.9844 5.14687 16.0594C6.51562 16.3781 7.89844 16.5938 9.29531 16.7062C10.6922 16.8187 12.0938 16.875 13.5 16.875C14.9062 16.875 16.3078 16.8187 17.7047 16.7062C19.1016 16.5938 20.4844 16.3781 21.8531 16.0594C22.1719 15.9844 22.4766 16.0219 22.7672 16.1719C23.0578 16.3219 23.25 16.5562 23.3438 16.875C23.4375 17.1938 23.3859 17.4937 23.1891 17.775C22.9922 18.0562 22.7344 18.2344 22.4156 18.3094C21.4969 18.5156 20.5781 18.6844 19.6594 18.8156C18.7406 18.9469 17.8125 19.05 16.875 19.125V23.625C16.875 23.9437 16.7672 24.2109 16.5516 24.4266C16.3359 24.6422 16.0687 24.75 15.75 24.75H11.25ZM13.5 7.875C12.5625 7.875 11.7656 7.54688 11.1094 6.89062C10.4531 6.23438 10.125 5.4375 10.125 4.5C10.125 3.5625 10.4531 2.76562 11.1094 2.10938C11.7656 1.45312 12.5625 1.125 13.5 1.125C14.4375 1.125 15.2344 1.45312 15.8906 2.10938C16.5469 2.76562 16.875 3.5625 16.875 4.5C16.875 5.4375 16.5469 6.23438 15.8906 6.89062C15.2344 7.54688 14.4375 7.875 13.5 7.875ZM13.5 15.75C12.8812 15.75 12.3516 15.5297 11.9109 15.0891C11.4703 14.6484 11.25 14.1187 11.25 13.5C11.25 12.8812 11.4703 12.3516 11.9109 11.9109C12.3516 11.4703 12.8812 11.25 13.5 11.25C14.1187 11.25 14.6484 11.4703 15.0891 11.9109C15.5297 12.3516 15.75 12.8812 15.75 13.5C15.75 14.1187 15.5297 14.6484 15.0891 15.0891C14.6484 15.5297 14.1187 15.75 13.5 15.75ZM18.8719 12.9375L17.5781 10.6875C17.4844 10.5188 17.4375 10.3313 17.4375 10.125C17.4375 9.91875 17.4844 9.73125 17.5781 9.5625L18.8719 7.3125C18.9656 7.125 19.0969 6.98438 19.2656 6.89062C19.4344 6.79688 19.6219 6.75 19.8281 6.75H22.3594C22.5656 6.75 22.7531 6.79688 22.9219 6.89062C23.0906 6.98438 23.2219 7.125 23.3156 7.3125L24.6094 9.5625C24.7031 9.73125 24.75 9.91875 24.75 10.125C24.75 10.3313 24.7031 10.5188 24.6094 10.6875L23.3156 12.9375C23.2219 13.125 23.0906 13.2656 22.9219 13.3594C22.7531 13.4531 22.5656 13.5 22.3594 13.5H19.8281C19.6219 13.5 19.4344 13.4531 19.2656 13.3594C19.0969 13.2656 18.9656 13.125 18.8719 12.9375Z" fill="black" fill-opacity="0.2"/>
</svg>
