<svg width="16" height="16" viewBox="0 0 16 16" fill="none" xmlns="http://www.w3.org/2000/svg">
<path d="M6 12C5.63333 12 5.31944 11.8695 5.05833 11.6084C4.79722 11.3473 4.66667 11.0334 4.66667 10.6667V2.66671C4.66667 2.30004 4.79722 1.98615 5.05833 1.72504C5.31944 1.46393 5.63333 1.33337 6 1.33337H12C12.3667 1.33337 12.6806 1.46393 12.9417 1.72504C13.2028 1.98615 13.3333 2.30004 13.3333 2.66671V10.6667C13.3333 11.0334 13.2028 11.3473 12.9417 11.6084C12.6806 11.8695 12.3667 12 12 12H6ZM3.33333 14.6667C2.96667 14.6667 2.65278 14.5362 2.39167 14.275C2.13056 14.0139 2 13.7 2 13.3334V4.66671C2 4.47782 2.06389 4.31948 2.19167 4.19171C2.31944 4.06393 2.47778 4.00004 2.66667 4.00004C2.85556 4.00004 3.01389 4.06393 3.14167 4.19171C3.26944 4.31948 3.33333 4.47782 3.33333 4.66671V13.3334H10C10.1889 13.3334 10.3472 13.3973 10.475 13.525C10.6028 13.6528 10.6667 13.8112 10.6667 14C10.6667 14.1889 10.6028 14.3473 10.475 14.475C10.3472 14.6028 10.1889 14.6667 10 14.6667H3.33333ZM7.83333 5.66671H8.5V7.16671C8.5 7.31115 8.54722 7.4306 8.64167 7.52504C8.73611 7.61948 8.85556 7.66671 9 7.66671C9.14444 7.66671 9.26389 7.61948 9.35833 7.52504C9.45278 7.4306 9.5 7.31115 9.5 7.16671V5.66671H10.1667V8.16671C10.1667 8.31115 10.2139 8.4306 10.3083 8.52504C10.4028 8.61948 10.5222 8.66671 10.6667 8.66671C10.8111 8.66671 10.9306 8.61948 11.025 8.52504C11.1194 8.4306 11.1667 8.31115 11.1667 8.16671V5.33337C11.1667 5.14448 11.1028 4.98615 10.975 4.85837C10.8472 4.7306 10.6889 4.66671 10.5 4.66671H7.5C7.31111 4.66671 7.15278 4.7306 7.025 4.85837C6.89722 4.98615 6.83333 5.14448 6.83333 5.33337V8.16671C6.83333 8.31115 6.88056 8.4306 6.975 8.52504C7.06944 8.61948 7.18889 8.66671 7.33333 8.66671C7.47778 8.66671 7.59722 8.61948 7.69167 8.52504C7.78611 8.4306 7.83333 8.31115 7.83333 8.16671V5.66671Z" fill="#020712"/>
</svg>
