<svg width="20" height="20" viewBox="0 0 20 20" fill="none" xmlns="http://www.w3.org/2000/svg">
<g clip-path="url(#clip0_106_329)">
<path d="M4.99967 8.33325C4.08301 8.33325 3.33301 9.08325 3.33301 9.99992C3.33301 10.9166 4.08301 11.6666 4.99967 11.6666C5.91634 11.6666 6.66634 10.9166 6.66634 9.99992C6.66634 9.08325 5.91634 8.33325 4.99967 8.33325ZM14.9997 8.33325C14.083 8.33325 13.333 9.08325 13.333 9.99992C13.333 10.9166 14.083 11.6666 14.9997 11.6666C15.9163 11.6666 16.6663 10.9166 16.6663 9.99992C16.6663 9.08325 15.9163 8.33325 14.9997 8.33325ZM9.99967 8.33325C9.08301 8.33325 8.33301 9.08325 8.33301 9.99992C8.33301 10.9166 9.08301 11.6666 9.99967 11.6666C10.9163 11.6666 11.6663 10.9166 11.6663 9.99992C11.6663 9.08325 10.9163 8.33325 9.99967 8.33325Z" fill="#F2F3F9"/>
</g>
<defs>
<clipPath id="clip0_106_329">
<rect width="20" height="20" fill="white"/>
</clipPath>
</defs>
</svg>
