<svg width="27" height="27" viewBox="0 0 27 27" fill="none" xmlns="http://www.w3.org/2000/svg">
<g clip-path="url(#clip0_73_833)">
<path d="M4.5 6.75H2.25V22.5C2.25 23.7375 3.2625 24.75 4.5 24.75H20.25V22.5H4.5V6.75ZM22.5 2.25H9C7.7625 2.25 6.75 3.2625 6.75 4.5V18C6.75 19.2375 7.7625 20.25 9 20.25H22.5C23.7375 20.25 24.75 19.2375 24.75 18V4.5C24.75 3.2625 23.7375 2.25 22.5 2.25ZM21.375 12.375H10.125V10.125H21.375V12.375ZM16.875 16.875H10.125V14.625H16.875V16.875ZM21.375 7.875H10.125V5.625H21.375V7.875Z" fill="#020712" fill-opacity="0.88"/>
<path d="M4.5 6.75H2.25V22.5C2.25 23.7375 3.2625 24.75 4.5 24.75H20.25V22.5H4.5V6.75ZM22.5 2.25H9C7.7625 2.25 6.75 3.2625 6.75 4.5V18C6.75 19.2375 7.7625 20.25 9 20.25H22.5C23.7375 20.25 24.75 19.2375 24.75 18V4.5C24.75 3.2625 23.7375 2.25 22.5 2.25ZM21.375 12.375H10.125V10.125H21.375V12.375ZM16.875 16.875H10.125V14.625H16.875V16.875ZM21.375 7.875H10.125V5.625H21.375V7.875Z" fill="black" fill-opacity="0.2"/>
</g>
<defs>
<clipPath id="clip0_73_833">
<rect width="27" height="27" fill="white"/>
</clipPath>
</defs>
</svg>
