<svg width="16" height="16" viewBox="0 0 16 16" fill="none" xmlns="http://www.w3.org/2000/svg">
<g clip-path="url(#clip0_102_386)">
<path d="M13.333 1.33337H5.33301C4.59967 1.33337 3.99967 1.93337 3.99967 2.66671V10.6667C3.99967 11.4 4.59967 12 5.33301 12H13.333C14.0663 12 14.6663 11.4 14.6663 10.6667V2.66671C14.6663 1.93337 14.0663 1.33337 13.333 1.33337ZM7.66634 6.33337C7.66634 6.88671 7.21967 7.33337 6.66634 7.33337H5.99967V8.66671H4.99967V4.66671H6.66634C7.21967 4.66671 7.66634 5.11337 7.66634 5.66671V6.33337ZM10.9997 7.66671C10.9997 8.22004 10.553 8.66671 9.99967 8.66671H8.33301V4.66671H9.99967C10.553 4.66671 10.9997 5.11337 10.9997 5.66671V7.66671ZM13.6663 5.66671H12.6663V6.33337H13.6663V7.33337H12.6663V8.66671H11.6663V4.66671H13.6663V5.66671ZM5.99967 6.33337H6.66634V5.66671H5.99967V6.33337ZM2.66634 4.00004H1.33301V13.3334C1.33301 14.0667 1.93301 14.6667 2.66634 14.6667H11.9997V13.3334H2.66634V4.00004ZM9.33301 7.66671H9.99967V5.66671H9.33301V7.66671Z" fill="#020712"/>
</g>
<defs>
<clipPath id="clip0_102_386">
<rect width="16" height="16" fill="white"/>
</clipPath>
</defs>
</svg>
