<svg width="45" height="45" viewBox="0 0 45 45" fill="none" xmlns="http://www.w3.org/2000/svg">
<path d="M28.8284 26.4844L30.2816 21.2344C30.4066 20.8594 30.3988 20.4844 30.2581 20.1094C30.1175 19.7344 29.8753 19.4219 29.5316 19.1719L25.0784 16.125C24.8284 15.9375 24.555 15.8984 24.2581 16.0078C23.9612 16.1172 23.7659 16.3281 23.6722 16.6406L22.2191 21.8906C22.0941 22.2656 22.1019 22.6406 22.2425 23.0156C22.3831 23.3906 22.6253 23.7031 22.9691 23.9531L27.4222 27C27.6722 27.1875 27.9456 27.2266 28.2425 27.1172C28.5394 27.0078 28.7347 26.7969 28.8284 26.4844ZM7.50031 35.2969L5.95344 34.5469C4.98469 34.1406 4.32844 33.4453 3.98469 32.4609C3.64094 31.4766 3.68781 30.5 4.12531 29.5313L7.50031 22.2188V35.2969ZM15.0003 39.375C13.9691 39.375 13.0862 39 12.3519 38.25C11.6175 37.5 11.2503 36.6094 11.2503 35.5781V24.375L16.2659 38.1563C16.3597 38.375 16.4378 38.5859 16.5003 38.7891C16.5628 38.9922 16.6722 39.1875 16.8284 39.375H15.0003ZM24.6566 39.1406C23.6878 39.4844 22.7191 39.4375 21.7503 39C20.7816 38.5625 20.1253 37.8594 19.7816 36.8906L11.4847 13.9688C11.1409 13 11.1878 12.0391 11.6253 11.0859C12.0628 10.1328 12.7659 9.48438 13.7347 9.14063L27.8441 3.98438C28.8128 3.64063 29.7738 3.68751 30.7269 4.12501C31.68 4.56251 32.3284 5.26563 32.6722 6.23438L41.0159 29.1563C41.3597 30.125 41.3128 31.0859 40.8753 32.0391C40.4378 32.9922 39.7347 33.6406 38.7659 33.9844L24.6566 39.1406Z" fill="#F2F3F9"/>
</svg>
