<svg width="45" height="45" viewBox="0 0 45 45" fill="none" xmlns="http://www.w3.org/2000/svg">
<path d="M6.5625 24.375L9.375 24.375L9.375 31.875C9.375 33.9375 11.0625 35.625 13.125 35.625L20.625 35.625L20.625 38.4375C20.625 41.025 22.725 43.125 25.3125 43.125C27.9 43.125 30 41.025 30 38.4375L30 35.625L37.5 35.625C39.5625 35.625 41.2313 33.9375 41.2313 31.875L41.2313 24.75L38.4375 24.75C35.6438 24.75 33.375 22.4812 33.375 19.6875C33.375 16.8937 35.6438 14.625 38.4375 14.625L41.25 14.625L41.25 7.5C41.25 5.4375 39.5625 3.75 37.5 3.75L30.375 3.75L30.375 6.5625C30.375 9.35625 28.1063 11.625 25.3125 11.625C22.5188 11.625 20.25 9.35625 20.25 6.5625L20.25 3.75L13.125 3.75C11.0625 3.75 9.375 5.4375 9.375 7.5L9.375 15L6.5625 15C3.975 15 1.875 17.1 1.875 19.6875C1.875 22.275 3.975 24.375 6.5625 24.375Z" fill="#F2F3F9"/>
</svg>
