<svg width="27" height="27" viewBox="0 0 27 27" fill="none" xmlns="http://www.w3.org/2000/svg">
<g clip-path="url(#clip0_73_750)">
<path d="M21.5329 14.5575C21.5779 14.2199 21.6004 13.8712 21.6004 13.5C21.6004 13.14 21.5779 12.78 21.5216 12.4425L23.8054 10.665C24.0079 10.5075 24.0641 10.2037 23.9404 9.9787L21.7804 6.2437C21.6454 5.9962 21.3641 5.91745 21.1166 5.9962L18.4279 7.0762C17.8654 6.6487 17.2691 6.2887 16.6054 6.0187L16.2004 3.1612C16.1554 2.8912 15.9304 2.69995 15.6604 2.69995H11.3404C11.0704 2.69995 10.8566 2.8912 10.8116 3.1612L10.4066 6.0187C9.74287 6.2887 9.13537 6.65995 8.58412 7.0762L5.89537 5.9962C5.64787 5.9062 5.36662 5.9962 5.23162 6.2437L3.08287 9.9787C2.94787 10.215 2.99287 10.5075 3.21787 10.665L5.50162 12.4425C5.44537 12.78 5.40037 13.1512 5.40037 13.5C5.40037 13.8487 5.42287 14.2199 5.47912 14.5575L3.19537 16.335C2.99287 16.4925 2.93662 16.7962 3.06037 17.0212L5.22037 20.7562C5.35537 21.0037 5.63662 21.0825 5.88412 21.0037L8.57287 19.9237C9.13537 20.3512 9.73162 20.7112 10.3954 20.9812L10.8004 23.8387C10.8566 24.1087 11.0704 24.3 11.3404 24.3H15.6604C15.9304 24.3 16.1554 24.1087 16.1891 23.8387L16.5941 20.9812C17.2579 20.7112 17.8654 20.3512 18.4166 19.9237L21.1054 21.0037C21.3529 21.0937 21.6341 21.0037 21.7691 20.7562L23.9291 17.0212C24.0641 16.7737 24.0079 16.4925 23.7941 16.335L21.5329 14.5575ZM13.5004 17.55C11.2729 17.55 9.45037 15.7275 9.45037 13.5C9.45037 11.2725 11.2729 9.44995 13.5004 9.44995C15.7279 9.44995 17.5504 11.2725 17.5504 13.5C17.5504 15.7275 15.7279 17.55 13.5004 17.55Z" fill="#020712" fill-opacity="0.88"/>
<path d="M21.5329 14.5575C21.5779 14.2199 21.6004 13.8712 21.6004 13.5C21.6004 13.14 21.5779 12.78 21.5216 12.4425L23.8054 10.665C24.0079 10.5075 24.0641 10.2037 23.9404 9.9787L21.7804 6.2437C21.6454 5.9962 21.3641 5.91745 21.1166 5.9962L18.4279 7.0762C17.8654 6.6487 17.2691 6.2887 16.6054 6.0187L16.2004 3.1612C16.1554 2.8912 15.9304 2.69995 15.6604 2.69995H11.3404C11.0704 2.69995 10.8566 2.8912 10.8116 3.1612L10.4066 6.0187C9.74287 6.2887 9.13537 6.65995 8.58412 7.0762L5.89537 5.9962C5.64787 5.9062 5.36662 5.9962 5.23162 6.2437L3.08287 9.9787C2.94787 10.215 2.99287 10.5075 3.21787 10.665L5.50162 12.4425C5.44537 12.78 5.40037 13.1512 5.40037 13.5C5.40037 13.8487 5.42287 14.2199 5.47912 14.5575L3.19537 16.335C2.99287 16.4925 2.93662 16.7962 3.06037 17.0212L5.22037 20.7562C5.35537 21.0037 5.63662 21.0825 5.88412 21.0037L8.57287 19.9237C9.13537 20.3512 9.73162 20.7112 10.3954 20.9812L10.8004 23.8387C10.8566 24.1087 11.0704 24.3 11.3404 24.3H15.6604C15.9304 24.3 16.1554 24.1087 16.1891 23.8387L16.5941 20.9812C17.2579 20.7112 17.8654 20.3512 18.4166 19.9237L21.1054 21.0037C21.3529 21.0937 21.6341 21.0037 21.7691 20.7562L23.9291 17.0212C24.0641 16.7737 24.0079 16.4925 23.7941 16.335L21.5329 14.5575ZM13.5004 17.55C11.2729 17.55 9.45037 15.7275 9.45037 13.5C9.45037 11.2725 11.2729 9.44995 13.5004 9.44995C15.7279 9.44995 17.5504 11.2725 17.5504 13.5C17.5504 15.7275 15.7279 17.55 13.5004 17.55Z" fill="black" fill-opacity="0.2"/>
</g>
<defs>
<clipPath id="clip0_73_750">
<rect width="27" height="27" fill="white"/>
</clipPath>
</defs>
</svg>
