<svg width="45" height="45" viewBox="0 0 45 45" fill="none" xmlns="http://www.w3.org/2000/svg">
<path d="M5.625 28.6406C5.625 29.5469 5.9375 30.25 6.5625 30.75C7.1875 31.25 8.21875 31.5781 9.65625 31.7344C10.1563 31.7969 10.5547 32.0234 10.8516 32.4141C11.1484 32.8047 11.2813 33.25 11.25 33.75C11.2187 34.2812 11.0313 34.7187 10.6875 35.0625C10.3437 35.4063 9.92188 35.5469 9.42188 35.4844C6.89062 35.1719 5 34.4453 3.75 33.3047C2.5 32.1641 1.875 30.6094 1.875 28.6406C1.875 26.6094 2.71094 24.9609 4.38281 23.6953C6.05469 22.4297 8.375 21.6719 11.3438 21.4219C12.5625 21.3281 13.4766 21.1328 14.0859 20.8359C14.6953 20.5391 15 20.125 15 19.5938C15 18.9062 14.6719 18.3672 14.0156 17.9766C13.3594 17.5859 12.2812 17.2812 10.7812 17.0625C10.2812 17 9.88281 16.7656 9.58594 16.3594C9.28906 15.9531 9.17187 15.5 9.23438 15C9.29688 14.4688 9.51562 14.0391 9.89062 13.7109C10.2656 13.3828 10.7031 13.25 11.2031 13.3125C13.7969 13.6875 15.7031 14.3828 16.9219 15.3984C18.1406 16.4141 18.75 17.8125 18.75 19.5938C18.75 21.25 18.1484 22.5469 16.9453 23.4844C15.7422 24.4219 13.9688 24.9844 11.625 25.1719C9.625 25.3281 8.125 25.6953 7.125 26.2734C6.125 26.8516 5.625 27.6406 5.625 28.6406ZM26.0156 34.2188L18.2812 26.4844L34.4531 10.3125C35.0781 9.6875 35.8203 9.375 36.6797 9.375C37.5391 9.375 38.2813 9.6875 38.9062 10.3125L42.1875 13.5938C42.8125 14.2187 43.125 14.9609 43.125 15.8203C43.125 16.6797 42.8125 17.4219 42.1875 18.0469L26.0156 34.2188ZM16.8281 37.5C16.2969 37.625 15.8281 37.4844 15.4219 37.0781C15.0156 36.6719 14.875 36.2031 15 35.6719L16.4531 28.5938L23.8594 36L16.8281 37.5Z" fill="#F2F3F9"/>
</svg>
