<svg width="45" height="45" viewBox="0 0 45 45" fill="none" xmlns="http://www.w3.org/2000/svg">
<path d="M14.3333 33C13.6917 33 13.1422 32.7717 12.6848 32.3152C12.2283 31.8578 12 31.3083 12 30.6667V14.3333C12 13.6917 12.2283 13.1422 12.6848 12.6848C13.1422 12.2283 13.6917 12 14.3333 12H25.0375C25.3486 12 25.6453 12.0583 25.9277 12.175C26.2092 12.2917 26.4569 12.4569 26.6708 12.6708L32.3292 18.3292C32.5431 18.5431 32.7083 18.7908 32.825 19.0723C32.9417 19.3547 33 19.6514 33 19.9625V30.6667C33 31.3083 32.7717 31.8578 32.3152 32.3152C31.8578 32.7717 31.3083 33 30.6667 33H14.3333ZM17.8333 28.3333H27.1667C27.4972 28.3333 27.7741 28.2213 27.9973 27.9973C28.2213 27.7741 28.3333 27.4972 28.3333 27.1667C28.3333 26.8361 28.2213 26.5588 27.9973 26.3348C27.7741 26.1116 27.4972 26 27.1667 26H17.8333C17.5028 26 17.2255 26.1116 17.0015 26.3348C16.7783 26.5588 16.6667 26.8361 16.6667 27.1667C16.6667 27.4972 16.7783 27.7741 17.0015 27.9973C17.2255 28.2213 17.5028 28.3333 17.8333 28.3333ZM17.8333 23.6667H27.1667C27.4972 23.6667 27.7741 23.5547 27.9973 23.3307C28.2213 23.1074 28.3333 22.8306 28.3333 22.5C28.3333 22.1694 28.2213 21.8922 27.9973 21.6682C27.7741 21.4449 27.4972 21.3333 27.1667 21.3333H17.8333C17.5028 21.3333 17.2255 21.4449 17.0015 21.6682C16.7783 21.8922 16.6667 22.1694 16.6667 22.5C16.6667 22.8306 16.7783 23.1074 17.0015 23.3307C17.2255 23.5547 17.5028 23.6667 17.8333 23.6667ZM17.8333 19H23.6667C23.9972 19 24.2745 18.888 24.4985 18.664C24.7217 18.4408 24.8333 18.1639 24.8333 17.8333C24.8333 17.5028 24.7217 17.2255 24.4985 17.0015C24.2745 16.7783 23.9972 16.6667 23.6667 16.6667H17.8333C17.5028 16.6667 17.2255 16.7783 17.0015 17.0015C16.7783 17.2255 16.6667 17.5028 16.6667 17.8333C16.6667 18.1639 16.7783 18.4408 17.0015 18.664C17.2255 18.888 17.5028 19 17.8333 19Z" fill="currentColor"/>
</svg>
