<svg width="48" height="48" viewBox="0 0 48 48" fill="none" xmlns="http://www.w3.org/2000/svg">
<path d="M10.9091 21.8182C7.89091 21.8182 5.31855 20.7542 3.192 18.6262C1.064 16.4996 0 13.9273 0 10.9091C0 7.85455 1.064 5.27273 3.192 3.16364C5.31855 1.05455 7.89091 0 10.9091 0C13.9636 0 16.5455 1.05455 18.6545 3.16364C20.7636 5.27273 21.8182 7.85455 21.8182 10.9091C21.8182 13.9273 20.7636 16.4996 18.6545 18.6262C16.5455 20.7542 13.9636 21.8182 10.9091 21.8182ZM10.9091 17.4545C12.7636 17.4545 14.3178 16.8182 15.5716 15.5455C16.8269 14.2727 17.4545 12.7273 17.4545 10.9091C17.4545 9.05455 16.8269 7.49964 15.5716 6.24436C14.3178 4.99055 12.7636 4.36364 10.9091 4.36364C9.09091 4.36364 7.54545 4.99055 6.27273 6.24436C5 7.49964 4.36364 9.05455 4.36364 10.9091C4.36364 12.7273 5 14.2727 6.27273 15.5455C7.54545 16.8182 9.09091 17.4545 10.9091 17.4545ZM32.7273 48C31.5273 48 30.5004 47.5731 29.6465 46.7193C28.7913 45.864 28.3636 44.8364 28.3636 43.6364V32.7273C28.3636 31.5273 28.7913 30.4996 29.6465 29.6444C30.5004 28.7905 31.5273 28.3636 32.7273 28.3636H43.6364C44.8364 28.3636 45.864 28.7905 46.7193 29.6444C47.5731 30.4996 48 31.5273 48 32.7273V43.6364C48 44.8364 47.5731 45.864 46.7193 46.7193C45.864 47.5731 44.8364 48 43.6364 48H32.7273ZM32.7273 43.6364H43.6364V32.7273H32.7273V43.6364ZM36.4909 14.6182L14.6182 36.4364C14.8 36.8727 14.9542 37.3273 15.0807 37.8C15.2087 38.2727 15.2727 38.7636 15.2727 39.2727C15.2727 41.0909 14.6458 42.6364 13.392 43.9091C12.1367 45.1818 10.5818 45.8182 8.72727 45.8182C6.90909 45.8182 5.36364 45.1818 4.09091 43.9091C2.81818 42.6364 2.18182 41.0909 2.18182 39.2727C2.18182 37.4182 2.81818 35.864 4.09091 34.6102C5.36364 33.3549 6.90909 32.7273 8.72727 32.7273C9.23636 32.7273 9.72727 32.7905 10.2 32.9171C10.6727 33.0451 11.1273 33.2 11.5636 33.3818L33.3818 11.5091C33.2 11.0727 33.0451 10.6269 32.9171 10.1716C32.7905 9.71782 32.7273 9.23636 32.7273 8.72727C32.7273 6.87273 33.3636 5.31782 34.6364 4.06255C35.9091 2.80873 37.4545 2.18182 39.2727 2.18182C41.1273 2.18182 42.6822 2.80873 43.9375 4.06255C45.1913 5.31782 45.8182 6.87273 45.8182 8.72727C45.8182 10.5455 45.1913 12.0909 43.9375 13.3636C42.6822 14.6364 41.1273 15.2727 39.2727 15.2727C38.7636 15.2727 38.2822 15.2087 37.8284 15.0807C37.3731 14.9542 36.9273 14.8 36.4909 14.6182Z" fill="#F2F3F9"/>
</svg>
