<svg width="45" height="45" viewBox="0 0 45 45" fill="none" xmlns="http://www.w3.org/2000/svg">
<g clip-path="url(#clip0_137_422)">
<path d="M22.4814 3.75C12.1314 3.75 3.73145 12.15 3.73145 22.5C3.73145 32.85 12.1314 41.25 22.4814 41.25C32.8314 41.25 41.2314 32.85 41.2314 22.5C41.2314 12.15 32.8314 3.75 22.4814 3.75ZM29.2502 15.6375C31.2564 15.6375 32.8689 17.25 32.8689 19.2563C32.8689 21.2625 31.2564 22.875 29.2502 22.875C27.2439 22.875 25.6314 21.2625 25.6314 19.2563C25.6127 17.25 27.2439 15.6375 29.2502 15.6375ZM18.0002 12.675C20.4377 12.675 22.4252 14.6625 22.4252 17.1C22.4252 19.5375 20.4377 21.525 18.0002 21.525C15.5627 21.525 13.5752 19.5375 13.5752 17.1C13.5752 14.6437 15.5439 12.675 18.0002 12.675ZM18.0002 29.7938V36.825C13.5002 35.4187 9.9377 31.95 8.3627 27.525C10.3314 25.425 15.2439 24.3562 18.0002 24.3562C18.9939 24.3562 20.2502 24.5063 21.5627 24.7688C18.4877 26.4 18.0002 28.5563 18.0002 29.7938ZM22.4814 37.5C21.9752 37.5 21.4877 37.4812 21.0002 37.425V29.7938C21.0002 27.1313 26.5127 25.8 29.2502 25.8C31.2564 25.8 34.7252 26.5312 36.4502 27.9562C34.2564 33.525 28.8377 37.5 22.4814 37.5Z" fill="#F2F3F9"/>
</g>
<defs>
<clipPath id="clip0_137_422">
<rect width="45" height="45" fill="white"/>
</clipPath>
</defs>
</svg>
