<svg width="395" height="486" viewBox="0 0 395 486" fill="none" xmlns="http://www.w3.org/2000/svg">
<g clip-path="url(#clip0_223_241)">
<path d="M333.5 94H16.5C8.76801 94 2.5 100.268 2.5 108V377C2.5 384.732 8.76801 391 16.5 391H333.5C341.232 391 347.5 384.732 347.5 377V108C347.5 100.268 341.232 94 333.5 94Z" stroke="#020712" stroke-opacity="0.08" stroke-width="4"/>
<path d="M94.5 116H40.5C31.6634 116 24.5 123.163 24.5 132V470C24.5 478.837 31.6634 486 40.5 486H94.5C103.337 486 110.5 478.837 110.5 470V132C110.5 123.163 103.337 116 94.5 116Z" fill="#25CAA2"/>
<path d="M394.5 161V16C394.5 7.16344 387.337 0 378.5 0L152.5 0C143.663 0 136.5 7.16344 136.5 16V161C136.5 169.837 143.663 177 152.5 177L378.5 177C387.337 177 394.5 169.837 394.5 161Z" fill="#5B87FE"/>
<path d="M236.5 365C282.34 365 319.5 327.84 319.5 282C319.5 236.16 282.34 199 236.5 199C190.66 199 153.5 236.16 153.5 282C153.5 327.84 190.66 365 236.5 365Z" fill="#FCCA77"/>
</g>
<defs>
<clipPath id="clip0_223_241">
<rect width="395" height="486" fill="white"/>
</clipPath>
</defs>
</svg>
